<?xml version="1.0" encoding="utf-8"?>
<!-- Generator: Adobe Illustrator 15.0.0, SVG Export Plug-In  -->
<!DOCTYPE svg PUBLIC "-//W3C//DTD SVG 1.1//EN" "http://www.w3.org/Graphics/SVG/1.1/DTD/svg11.dtd" [
	<!ENTITY ns_flows "http://ns.adobe.com/Flows/1.0/">
]>
<svg version="1.1"
	 xmlns="http://www.w3.org/2000/svg" xmlns:xlink="http://www.w3.org/1999/xlink" xmlns:a="http://ns.adobe.com/AdobeSVGViewerExtensions/3.0/"
	 x="0px" y="0px" width="748px" height="1000px" viewBox="0 -52 748 1000" enable-background="new 0 -52 748 1000"
	 xml:space="preserve">
<defs>
</defs>
<path d="M6.851,560.512c6.51-27.342,23.111-71.284,49.802-131.828c26.691-60.543,41.339-109.042,43.943-145.499
	c26.04,48.174,41.013,96.348,44.919,144.522C244.466,305.319,295.896,162.75,299.801,0c6.511,3.906,14.974,9.439,25.39,16.601
	c10.416,7.161,29.62,22.459,57.613,45.895s52.731,47.848,74.214,73.237c21.483,25.39,41.664,57.614,60.544,96.674
	c18.879,39.06,30.271,78.12,34.178,117.18c10.416-23.436,16.926-49.476,19.529-78.12c2.604-28.644-0.65-55.335-9.765-80.073
	c10.416,7.812,24.087,20.832,41.013,39.06c16.927,18.228,35.806,42.966,56.638,74.214s39.385,64.449,55.66,99.604
	c16.274,35.153,26.69,74.539,31.247,118.156c4.558,43.617,1.628,85.933-8.788,126.945c-10.417,41.013-34.504,83.328-72.262,126.945
	c-37.757,43.617-88.535,83.653-152.334,120.109c42.966-85.932,51.43-178.699,25.39-278.303s-77.47-176.096-154.287-229.478
	c6.51,28.644,2.929,75.841-10.742,141.593c-13.672,65.751-35.479,115.553-65.425,149.404c5.208-41.663,6.51-75.516,3.905-101.556
	c-2.604-26.04-6.51-45.57-11.717-58.59l-9.765-17.577c-7.812,46.872-27.993,93.744-60.543,140.616
	c-16.926,24.738-29.621,47.522-38.084,68.354s-11.718,47.523-9.765,80.073s12.043,67.704,30.271,105.462
	C122.078,845.65,61.86,794.221,31.263,742.141C0.665,690.061-7.473,629.518,6.851,560.512L6.851,560.512z"/>
</svg>
